<?xml version="1.0" standalone="no"?>
<!DOCTYPE svg PUBLIC "-//W3C//DTD SVG 20010904//EN"
 "http://www.w3.org/TR/2001/REC-SVG-20010904/DTD/svg10.dtd">
<svg version="1.0" xmlns="http://www.w3.org/2000/svg"
 width="166.000000pt" height="141.000000pt" viewBox="0 0 166.000000 141.000000"
 preserveAspectRatio="xMidYMid meet">

<g transform="translate(0.000000,141.000000) scale(0.100000,-0.100000)"
fill="#000000" stroke="none">
<path d="M0 705 l0 -705 830 0 830 0 0 705 0 705 -830 0 -830 0 0 -705z m792
550 c18 -24 36 -44 40 -45 4 0 20 17 35 38 15 20 32 40 38 44 5 5 73 7 149 5
l140 -2 32 -105 c18 -58 33 -113 33 -122 1 -17 -26 -18 -424 -18 -353 0 -425
2 -425 14 0 14 58 215 66 228 3 4 68 8 144 8 l139 0 33 -45z m508 -320 l16
-60 42 3 c52 4 84 -12 80 -41 l-3 -22 -597 -3 c-582 -2 -597 -2 -608 17 -15
29 13 53 59 51 66 -3 67 -3 80 53 8 28 16 55 18 60 2 4 205 6 450 5 l446 -3
17 -60z m20 -307 c0 -68 -5 -143 -11 -168 -41 -178 -189 -322 -375 -366 -208
-49 -441 64 -536 258 -39 80 -47 127 -48 271 l0 127 485 0 485 0 0 -122z"/>
<path d="M524 651 c-29 -13 -54 -50 -54 -80 0 -46 39 -110 81 -131 81 -42 195
-11 232 63 16 32 24 37 53 37 27 0 35 -5 40 -25 9 -35 67 -83 109 -91 50 -9
113 1 144 23 14 11 37 40 49 66 21 41 22 51 12 82 -17 51 -51 65 -160 65 -94
0 -142 -14 -153 -45 -11 -27 -74 -19 -102 13 -22 26 -28 27 -127 29 -56 2
-113 -1 -124 -6z m214 -88 c5 -52 -33 -83 -101 -83 -59 0 -92 21 -103 65 -13
51 -3 56 103 53 l98 -3 3 -32z m400 6 c2 -17 -6 -37 -23 -58 -24 -27 -33 -31
-79 -31 -31 0 -61 6 -74 16 -28 19 -45 59 -36 86 5 17 15 18 107 16 102 -3
102 -3 105 -29z"/>
<path d="M755 314 c-12 -13 -13 -19 -4 -30 9 -11 32 -14 88 -12 65 3 76 6 79
22 6 27 -15 36 -85 36 -43 0 -66 -5 -78 -16z"/>
</g>
</svg>
